<svg xmlns="http://www.w3.org/2000/svg" width="52.32" height="78.062" viewBox="0 0 52.32 78.062">
  <g id="Group_624" data-name="Group 624" transform="translate(-628.3 -3408.901)">
    <circle id="Ellipse_112" data-name="Ellipse 112" cx="26.16" cy="26.16" r="26.16" transform="translate(628.3 3434.168)" fill="#bfc8ca"/>
    <path id="Path_1025" data-name="Path 1025" d="M642.418,3432.077v-6.153a12.041,12.041,0,0,1,24.083,0v6.154l.082.032a31.159,31.159,0,0,1,4.9,2.612v-8.8a17.025,17.025,0,1,0-34.049,0v8.8a31.073,31.073,0,0,1,4.9-2.612l.082-.032Z" fill="#bfc8ca"/>
    <path id="Path_1026" data-name="Path 1026" d="M654.459,3434.644a26.159,26.159,0,1,0,26.16,26.16A26.159,26.159,0,0,0,654.459,3434.644Zm2.492,27.5v8.9h-4.983v-8.9a5.812,5.812,0,1,1,4.983,0Z" fill="#fff"/>
  </g>
</svg>
