<svg xmlns="http://www.w3.org/2000/svg" width="55.671" height="73.362" viewBox="0 0 55.671 73.362">
  <path id="Path_938" data-name="Path 938" d="M1512.166,3404.579c-4.976-3.213-11.691-3.12-15.662-7.515v-1.143q.3-3.229.348-6.457a12.565,12.565,0,0,0,3.833-9.4,11.665,11.665,0,0,0,3.187-4.113,6.22,6.22,0,0,0,.028-5.09,3.244,3.244,0,0,0-.546-.8c.1-.242.168-.493.257-.739a29.267,29.267,0,0,0,2.652-21.007,18.791,18.791,0,0,1-11.247,2.726,24.929,24.929,0,0,0-3.9-.713c-.155-.047-.315-.075-.468-.126,0,.033.02.068.024.1a16.8,16.8,0,0,0-3.828.1,12.185,12.185,0,0,0-7.928,4.988c-3.481,1.65-5.367,5.683-5.4,9.535a18.209,18.209,0,0,0,1.186,6.294,6.345,6.345,0,0,0,.177,4.726,11.668,11.668,0,0,0,3.187,4.113,12.561,12.561,0,0,0,3.834,9.4q.045,3.225.347,6.458v1.142c-3.97,4.394-10.686,4.3-15.661,7.515a13.92,13.92,0,0,0-4.42,4.715,38.893,38.893,0,0,0,54.42,0A13.921,13.921,0,0,0,1512.166,3404.579Z" transform="translate(-1461.54 -3347.535)" fill="#161c51" stroke="#707070" stroke-miterlimit="10" stroke-width="1"/>
</svg>
