<svg xmlns="http://www.w3.org/2000/svg" width="23.499" height="23.499" viewBox="0 0 23.499 23.499">
  <g id="user" transform="translate(0.05 9.05)">
    <g id="Group_97" data-name="Group 97" transform="translate(0 -9)">
      <path id="Path_1413" data-name="Path 1413" d="M19.973,15.126a11.655,11.655,0,0,0-4.446-2.789,6.764,6.764,0,1,0-7.654,0A11.718,11.718,0,0,0,0,23.4H1.828a9.872,9.872,0,0,1,19.743,0H23.4A11.623,11.623,0,0,0,19.973,15.126ZM11.7,11.7a4.936,4.936,0,1,1,4.936-4.936A4.941,4.941,0,0,1,11.7,11.7Z" transform="translate(0)" fill="#fff" stroke="#f5f5f5" stroke-linecap="round" stroke-linejoin="round" stroke-width="0.1"/>
    </g>
  </g>
</svg>
