<svg height="512pt" viewBox="-145 0 512 512.00003" width="512pt" xmlns="http://www.w3.org/2000/svg"><path d="m124.414062 510.292969c33.613282-6.777344 60.410157-32.136719 69.035157-65.324219 8.621093-33.183594-2.441407-68.382812-28.5-90.664062-12.386719-10.511719-22.21875-23.699219-28.757813-38.570313h-45.3125c8.148438 27.699219 24.261719 52.390625 46.335938 70.996094 12.996094 11.179687 18.90625 28.523437 15.445312 45.3125-3.695312 18.328125-18.019531 32.65625-36.351562 36.351562-13.847656 2.90625-28.269532-.589843-39.25-9.515625-10.976563-8.925781-17.34375-22.328125-17.324219-36.480468v-8.53125c0-11.78125-9.550781-21.332032-21.335937-21.332032-11.78125 0-21.332032 9.550782-21.332032 21.332032v8.53125c.003906 23.777343 9.457032 46.578124 26.277344 63.382812s39.632812 26.238281 63.410156 26.21875c5.925782-.019531 11.839844-.589844 17.660156-1.707031zm0 0"/><path d="m136.535156 298.667969c14.136719 0 25.597656-11.460938 25.597656-25.601563v-8.53125h-102.398437v8.53125c0 14.140625 11.460937 25.601563 25.597656 25.601563zm0 0"/><path d="m136.535156 8.535156v51.199219h42.664063v-51.199219c0-4.714844-3.820313-8.535156-8.53125-8.535156h-25.601563c-4.710937 0-8.53125 3.820312-8.53125 8.535156zm0 0"/><path d="m51.199219 0c-4.710938 0-8.53125 3.820312-8.53125 8.535156v51.199219h42.664062v-51.199219c0-4.714844-3.820312-8.535156-8.53125-8.535156zm0 0"/><path d="m128 128c0 9.425781-7.640625 17.066406-17.066406 17.066406-9.425782 0-17.066406-7.640625-17.066406-17.066406s7.640624-17.066406 17.066406-17.066406c9.425781 0 17.066406 7.640625 17.066406 17.066406zm0 0"/><path d="m221.867188 159.742188v-74.410157c-.015626-4.707031-3.828126-8.519531-8.535157-8.53125h-204.796875c-4.710937.011719-8.5234372 3.824219-8.535156 8.53125v74.410157c.0117188 1.558593.421875 3.085937 1.195312 4.4375l47.53125 79.105468c1.507813 2.621094 4.316407 4.21875 7.335938 4.179688h109.738281c3.023438.039062 5.832031-1.558594 7.339844-4.179688l47.53125-79.105468c.769531-1.351563 1.183594-2.878907 1.195313-4.4375zm-149.332032 69.546874c-4.109375 2.308594-9.308594.90625-11.691406-3.15625l-34.132812-59.734374c-.707032-1.3125-1.085938-2.773438-1.109376-4.265626v-59.734374c0-4.710938 3.820313-8.53125 8.53125-8.53125 4.714844 0 8.535157 3.820312 8.535157 8.53125v57.429687l33.023437 57.773437c2.324219 4.101563.914063 9.3125-3.15625 11.6875zm38.398438-67.15625c-18.851563 0-34.132813-15.28125-34.132813-34.132812s15.28125-34.132812 34.132813-34.132812c18.851562 0 34.132812 15.28125 34.132812 34.132812.003906 9.054688-3.59375 17.738281-9.996094 24.136719-6.398437 6.402343-15.082031 10-24.136718 9.996093zm0 0"/></svg>